<svg xmlns="http://www.w3.org/2000/svg" width="25" height="25" viewBox="0 0 25 25" fill="none">
  <g clip-path="url(#clip0_1_56)">
    <path d="M20.6555 4.78809H4.65552C3.55552 4.78809 2.65552 5.68809 2.65552 6.78809V18.7881C2.65552 19.8881 3.55552 20.7881 4.65552 20.7881H20.6555C21.7555 20.7881 22.6555 19.8881 22.6555 18.7881V6.78809C22.6555 5.68809 21.7555 4.78809 20.6555 4.78809ZM20.2555 9.03809L13.7155 13.1281C13.0655 13.5381 12.2455 13.5381 11.5955 13.1281L5.05552 9.03809C4.80552 8.87809 4.65552 8.60809 4.65552 8.31809C4.65552 7.64809 5.38552 7.24809 5.95552 7.59809L12.6555 11.7881L19.3555 7.59809C19.9255 7.24809 20.6555 7.64809 20.6555 8.31809C20.6555 8.60809 20.5055 8.87809 20.2555 9.03809Z" fill="#828282"/>
  </g>
  <defs>
    <clipPath id="clip0_1_56">
      <rect width="24" height="24" fill="white" transform="translate(0.655518 0.788086)"/>
    </clipPath>
  </defs>
</svg>