<svg xmlns="http://www.w3.org/2000/svg" width="25" height="25" viewBox="0 0 25 25" fill="none">
  <g clip-path="url(#clip0_1_61)">
    <path d="M18.6555 8.28809H17.6555V6.28809C17.6555 3.52809 15.4155 1.28809 12.6555 1.28809C9.89552 1.28809 7.65552 3.52809 7.65552 6.28809V8.28809H6.65552C5.55552 8.28809 4.65552 9.18809 4.65552 10.2881V20.2881C4.65552 21.3881 5.55552 22.2881 6.65552 22.2881H18.6555C19.7555 22.2881 20.6555 21.3881 20.6555 20.2881V10.2881C20.6555 9.18809 19.7555 8.28809 18.6555 8.28809ZM12.6555 17.2881C11.5555 17.2881 10.6555 16.3881 10.6555 15.2881C10.6555 14.1881 11.5555 13.2881 12.6555 13.2881C13.7555 13.2881 14.6555 14.1881 14.6555 15.2881C14.6555 16.3881 13.7555 17.2881 12.6555 17.2881ZM9.65552 8.28809V6.28809C9.65552 4.62809 10.9955 3.28809 12.6555 3.28809C14.3155 3.28809 15.6555 4.62809 15.6555 6.28809V8.28809H9.65552Z" fill="#828282"/>
  </g>
  <defs>
    <clipPath id="clip0_1_61">
      <rect width="24" height="24" fill="white" transform="translate(0.655518 0.288086)"/>
    </clipPath>
  </defs>
</svg>